<svg width="109" height="69" viewBox="0 0 109 69" fill="none" xmlns="http://www.w3.org/2000/svg">
<ellipse cx="54.5" cy="57" rx="54.5" ry="12" fill="white"/>
<ellipse cx="54" cy="56.5" rx="52" ry="10.5" fill="black"/>
<rect y="12" width="109" height="45" fill="white"/>
<rect x="2" y="12" width="104" height="45" fill="black"/>
<rect x="2" y="12" width="104" height="45" stroke="black"/>
<ellipse cx="54.5" cy="12" rx="54.5" ry="12" fill="white"/>
<ellipse cx="54" cy="12" rx="21" ry="4" fill="black"/>
<path d="M78.5986 21.9545L84.5306 25.0909" stroke="white" stroke-width="2" stroke-linecap="round"/>
<path d="M78.5986 27.6L84.5306 25.0909" stroke="white" stroke-width="2" stroke-linecap="round"/>
<path d="M78.5986 27.6L84.5306 30.7364" stroke="white" stroke-width="2" stroke-linecap="round"/>
<path d="M78.5986 33.2455L84.5306 30.7364" stroke="white" stroke-width="2" stroke-linecap="round"/>
<path d="M78.5986 33.2455L84.5306 36.3818" stroke="white" stroke-width="2" stroke-linecap="round"/>
<path d="M78.5986 38.8909L84.5306 36.3818" stroke="white" stroke-width="2" stroke-linecap="round"/>
<path d="M78.5986 38.8909L84.5306 42.0273" stroke="white" stroke-width="2" stroke-linecap="round"/>
<path d="M78.5986 44.5364L84.5306 42.0273" stroke="white" stroke-width="2" stroke-linecap="round"/>
<path d="M78.5986 44.5364L84.5306 47.6727" stroke="white" stroke-width="2" stroke-linecap="round"/>
<path d="M78.5986 50.1818L84.5306 47.6727" stroke="white" stroke-width="2" stroke-linecap="round"/>
<path d="M78.5986 50.1818L84.5306 53.3182" stroke="white" stroke-width="2" stroke-linecap="round"/>
<path d="M78.5986 55.8273L84.5306 53.3182" stroke="white" stroke-width="2" stroke-linecap="round"/>
<path d="M78.5986 55.8273L84.5306 58.9636" stroke="white" stroke-width="2" stroke-linecap="round"/>
<path d="M78.5986 61.4727L84.5306 58.9636" stroke="white" stroke-width="2" stroke-linecap="round"/>
<path d="M78.5986 61.4727L84.5306 64.6091" stroke="white" stroke-width="2" stroke-linecap="round"/>
<path d="M78.5986 67.1182L84.5306 64.6091" stroke="white" stroke-width="2" stroke-linecap="round"/>
</svg>
