<svg width="109" height="76" viewBox="0 0 109 76" fill="none" xmlns="http://www.w3.org/2000/svg">
<ellipse cx="54.5" cy="63" rx="54.5" ry="13" fill="white"/>
<ellipse cx="54" cy="62.5" rx="52" ry="11.5" fill="black"/>
<rect y="13" width="109" height="50" fill="white"/>
<rect x="2" y="13" width="104" height="50" fill="black"/>
<rect x="2" y="13" width="104" height="50" stroke="black"/>
<ellipse cx="54.5" cy="13" rx="54.5" ry="13" fill="white"/>
<ellipse cx="54" cy="13.5" rx="21" ry="4.5" fill="black"/>
<path d="M78.5986 24.1818L84.5306 27.6364" stroke="white" stroke-width="2" stroke-linecap="round"/>
<path d="M78.5986 30.4L84.5306 27.6364" stroke="white" stroke-width="2" stroke-linecap="round"/>
<path d="M78.5986 30.4L84.5306 33.8545" stroke="white" stroke-width="2" stroke-linecap="round"/>
<path d="M78.5986 36.6182L84.5306 33.8545" stroke="white" stroke-width="2" stroke-linecap="round"/>
<path d="M78.5986 36.6182L84.5306 40.0727" stroke="white" stroke-width="2" stroke-linecap="round"/>
<path d="M78.5986 42.8364L84.5306 40.0727" stroke="white" stroke-width="2" stroke-linecap="round"/>
<path d="M78.5986 42.8364L84.5306 46.2909" stroke="white" stroke-width="2" stroke-linecap="round"/>
<path d="M78.5986 49.0545L84.5306 46.2909" stroke="white" stroke-width="2" stroke-linecap="round"/>
<path d="M78.5986 49.0545L84.5306 52.5091" stroke="white" stroke-width="2" stroke-linecap="round"/>
<path d="M78.5986 55.2727L84.5306 52.5091" stroke="white" stroke-width="2" stroke-linecap="round"/>
<path d="M78.5986 55.2727L84.5306 58.7273" stroke="white" stroke-width="2" stroke-linecap="round"/>
<path d="M78.5986 61.4909L84.5306 58.7273" stroke="white" stroke-width="2" stroke-linecap="round"/>
<path d="M78.5986 61.4909L84.5306 64.9455" stroke="white" stroke-width="2" stroke-linecap="round"/>
<path d="M78.5986 67.7091L84.5306 64.9455" stroke="white" stroke-width="2" stroke-linecap="round"/>
<path d="M78.5986 67.7091L84.5306 71.1636" stroke="white" stroke-width="2" stroke-linecap="round"/>
<path d="M78.5986 73.9273L84.5306 71.1636" stroke="white" stroke-width="2" stroke-linecap="round"/>
</svg>
