<svg width="155" height="156" viewBox="0 0 155 156" fill="none" xmlns="http://www.w3.org/2000/svg">
<g clip-path="url(#clip0_14_6)">
<path d="M154.5 78C154.5 120.805 120.023 155.5 77.5 155.5C34.9771 155.5 0.5 120.805 0.5 78C0.5 35.1949 34.9771 0.5 77.5 0.5C120.023 0.5 154.5 35.1949 154.5 78Z" fill="black" stroke="white"/>
<g clip-path="url(#clip1_14_6)">
<rect x="30.5" y="40.5" width="94" height="82" rx="17.5" fill="black" stroke="#FFE81B" stroke-width="5"/>
<path d="M48 40.5H107C116.665 40.5 124.5 48.335 124.5 58V60.5H30.5V58C30.5 48.335 38.335 40.5 48 40.5Z" fill="black" stroke="#FFE81B" stroke-width="5"/>
<ellipse cx="49.5" cy="40.5" rx="4.5" ry="9.5" fill="#FFE81B"/>
<ellipse cx="105.5" cy="40.5" rx="4.5" ry="9.5" fill="#FFE81B"/>
<rect x="45" y="70" width="13" height="14" fill="#FFE81B"/>
<rect x="71" y="70" width="13" height="14" fill="#FFE81B"/>
<rect x="71" y="95" width="13" height="14" fill="#FFE81B"/>
<rect x="97" y="95" width="13" height="14" fill="#FFE81B"/>
<rect x="45" y="95" width="13" height="14" fill="#FFE81B"/>
<rect x="97" y="70" width="13" height="14" fill="#FFE81B"/>
</g>
</g>
<defs>
<clipPath id="clip0_14_6">
<rect width="155" height="156" fill="white"/>
</clipPath>
<clipPath id="clip1_14_6">
<rect width="99" height="94" fill="white" transform="translate(28 31)"/>
</clipPath>
</defs>
</svg>
